<svg width="17.500000" height="11.785156" viewBox="0 0 17.5 11.7852" fill="none" xmlns="http://www.w3.org/2000/svg" xmlns:xlink="http://www.w3.org/1999/xlink">
	<desc>
			Created with Pixso.
	</desc>
	<defs/>
	<path id="Vector" d="M0.851074 5.58301C0.786865 5.67603 0.751709 5.78589 0.75 5.89893C0.748291 6.01172 0.780273 6.1228 0.841553 6.21753C2.5686 8.92114 5.3855 11.0354 8.73755 11.0354C12.0532 11.0354 14.928 8.91455 16.6582 6.20508C16.7183 6.11206 16.75 6.00391 16.75 5.89307C16.75 5.78247 16.7183 5.67432 16.6582 5.5813C14.9241 2.90283 12.0281 0.75 8.73755 0.75C5.9541 0.75 3.09888 2.36108 0.851074 5.58301Z" stroke="#526AE9" stroke-opacity="1.000000" stroke-width="1.500000" stroke-linejoin="round"/>
	<path id="Vector" d="M8.74951 8.74976C7.17163 8.74976 5.89258 7.47046 5.89258 5.89258C5.89258 4.3147 7.17163 3.03564 8.74951 3.03564C10.3274 3.03564 11.6067 4.3147 11.6067 5.89258C11.6067 7.47046 10.3274 8.74976 8.74951 8.74976Z" stroke="#526AE9" stroke-opacity="1.000000" stroke-width="1.500000"/>
</svg>
