<svg width="16.000000" height="14.193726" viewBox="0 0 16 14.1937" fill="none" xmlns="http://www.w3.org/2000/svg" xmlns:xlink="http://www.w3.org/1999/xlink">
	<desc>
			Created with Pixso.
	</desc>
	<defs/>
	<path id="Vector" d="M14.5413 1.50366C13.6931 0.653198 12.5686 0.134155 11.3711 0.0401611C10.1736 -0.0537109 8.98218 0.283691 8.01172 0.991455C6.99341 0.234253 5.72632 -0.109131 4.46509 0.0305176C3.20386 0.170166 2.04248 0.782471 1.2146 1.74414C0.386963 2.70581 -0.0456543 3.94543 0.00390625 5.21338C0.0534668 6.48132 0.581543 7.68335 1.48193 8.57739L6.45117 13.5547C6.86743 13.9642 7.42773 14.1937 8.01172 14.1937C8.59546 14.1937 9.15601 13.9642 9.57202 13.5547L14.5413 8.57739C15.4756 7.63745 16 6.36584 16 5.04053C16 3.71521 15.4756 2.44373 14.5413 1.50366ZM13.4131 7.47314L8.44385 12.4424C8.38721 12.4995 8.31982 12.5448 8.24561 12.5758C8.17163 12.6067 8.09204 12.6227 8.01172 12.6227C7.93115 12.6227 7.85181 12.6067 7.77759 12.5758C7.70337 12.5448 7.63599 12.4995 7.57959 12.4424L2.61035 7.4491C1.98267 6.80762 1.63135 5.94592 1.63135 5.04858C1.63135 4.15112 1.98267 3.28943 2.61035 2.64795C3.24976 2.0166 4.1123 1.66248 5.01099 1.66248C5.90942 1.66248 6.77197 2.0166 7.41138 2.64795C7.48584 2.7229 7.57446 2.78247 7.67188 2.82312C7.76929 2.86377 7.87402 2.88464 7.97974 2.88464C8.08521 2.88464 8.18994 2.86377 8.28735 2.82312C8.38477 2.78247 8.47339 2.7229 8.54785 2.64795C9.18726 2.0166 10.0498 1.66248 10.9485 1.66248C11.8469 1.66248 12.7095 2.0166 13.3489 2.64795C13.9851 3.28101 14.3481 4.13806 14.3601 5.03552C14.3721 5.93286 14.032 6.79932 13.4131 7.4491L13.4131 7.47314Z" fill="#E2315C" fill-opacity="1.000000" fill-rule="nonzero"/>
</svg>
